# xmcd
#
# Track frame offsets:
#	150
#	16157
#	30687
#	47508
#	66877
#	85772
#	102814
#	121092
#	138663
#	154046
#	169359
#	188366
#	206896
#	223625
#	241014
#	257777
#	271583
#	287844
#
# Disc length: 4065 seconds
#
# Revision: 0
# Processed by: cddbd v1.5.2PL0 Copyright (c) Steve Scherf et al.
# Submitted via: EasyCDDAExtractor 16.0.9.1
#
DISCID=f30fdf12
DTITLE=Various Artist - Dance Action Vol.8
DYEAR=2000
DGENRE=Dance
TTITLE0=Ann Lee - Voices
TTITLE1=Lutricia McNeal - 365 Days
TTITLE2=Baccara - Yes Sir, I Can Boogie (Mix '99)
TTITLE3=Shag Gang - Beautiful Stranger
TTITLE4=Scooter - Fuck The Millenium
TTITLE5=666 - The Demon
TTITLE6=Maaraja - Candle
TTITLE7=Ricardo H. - Mambo The Rednoseo Reindeer
TTITLE8=Speck feat. Danny Chunga - Rosemunda 2000
TTITLE9=T-Spoon - Merry Christmas
TTITLE10=Pandera - Lunica Donna  Per Me
TTITLE11=Carina - Hacienda Lover
TTITLE12=DJ Bobo - Together
TTITLE13=Mark Ashley - Mareen
TTITLE14=Technotronic feat. Monday Midnite - Like This
TTITLE15=DJ Disco - Superfreak
TTITLE16=DJ Ray Corn and Friends - Open Your Eyes
TTITLE17=Ann Lee - 2 Times (Christmas Version)
EXTD=
EXTT0=
EXTT1=
EXTT2=
EXTT3=
EXTT4=
EXTT5=
EXTT6=
EXTT7=
EXTT8=
EXTT9=
EXTT10=
EXTT11=
EXTT12=
EXTT13=
EXTT14=
EXTT15=
EXTT16=
EXTT17=
PLAYORDER=
